<svg width="246" height="64" viewBox="0 0 246 64" fill="none" xmlns="http://www.w3.org/2000/svg">
<g filter="url(#filter0_d)">
<path d="M42.28 31.42C42.28 21.58 34.18 13.78 24.4 13.78C21.7 13.78 18.64 13.96 17.8 13.96H13.96C13.24 13.96 12.04 13.84 11.08 13.84H10.6L10.9 14.98C10.9 14.98 11.14 14.98 11.32 14.98C13 15.16 13.6 15.52 13.6 17.86V45.1C13.6 47.44 13 47.86 11.32 48.04C11.14 48.04 10.9 48.04 10.9 48.04L10.6 49.12H11.08C12.04 49.12 13.24 49 13.96 49H18.64C18.94 49 21.94 49.18 24.4 49.18C34.3 49.18 42.28 41.32 42.28 31.42ZM36.4 31.54C36.4 38.38 30.88 43.9 24.1 43.9H19.72V19.12H24.1C30.88 19.12 36.4 24.64 36.4 31.54ZM71.68 24.52C71.68 27.88 68.86 30.7 66.22 33.7L54.82 46.78V49H73.84C75.22 49 77.02 49.06 77.74 49.06V45.52L77.8 42.22C77.8 41.86 77.92 41.26 77.92 40.78V40.24C77.5 40.36 77.14 40.48 76.78 40.6V41.02C76.54 42.7 76.18 43.24 73.84 43.24H65.14L70.36 37.42C73.54 33.88 77.68 30.16 77.68 24.52C77.68 18.16 72.58 13.06 66.22 13.06C59.86 13.06 54.76 18.16 54.76 24.52C54.76 25.06 54.88 26.44 54.88 26.44H58.48C59.38 26.44 60.94 26.56 62.26 26.56H62.98C62.86 26.14 62.8 25.84 62.68 25.48H62.32C61.06 25.3 60.46 24.82 60.46 23.56C60.46 21.34 62.8 18.76 65.98 18.76C69.16 18.76 71.68 21.34 71.68 24.52Z" fill="#E46000"/>
<path d="M94.1163 13.96C93.3963 13.96 92.1963 13.84 91.2363 13.84H90.7563L91.0563 14.98H91.4763C93.1563 15.16 93.7563 15.52 93.7563 17.86V45.1C93.7563 47.44 93.1563 47.86 91.4763 48.04H91.0563L90.7563 49.12H91.2363C92.1963 49.12 93.3963 49 94.1163 49L101.856 49.12C110.016 49.12 114.576 44.44 114.576 38.5C114.576 33.82 111.996 30.76 108.456 29.14C110.796 27.76 112.296 25.42 112.296 22.24C112.296 16.84 108.096 13.9 102.696 13.9L94.1163 13.96ZM108.456 38.26C108.456 42.16 105.216 44.02 101.796 44.02H99.8163V32.44H101.796C105.216 32.44 108.456 34.3 108.456 38.26ZM107.016 22.84C107.016 25.72 104.676 27.28 101.796 27.28H99.8163V18.34H101.796C104.676 18.34 107.016 19.9 107.016 22.84ZM127.213 45.04C126.193 47.2 125.533 47.2 123.913 46.72L123.553 46.48L122.713 47.32L123.193 47.56C124.033 47.98 125.173 48.4 125.833 48.7L130.573 51.16C131.173 51.46 132.193 52.12 133.093 52.6L133.573 52.84L133.753 51.64L133.393 51.46C131.953 50.56 131.653 49.9 132.673 47.8L134.173 44.62H153.133L154.633 47.8C155.653 49.9 155.353 50.56 153.913 51.46L153.553 51.64L153.733 52.84L154.213 52.6C155.113 52.12 156.133 51.46 156.733 51.16L161.473 48.7C162.133 48.4 163.273 47.98 164.113 47.56L164.593 47.32L163.753 46.48L163.393 46.72C161.773 47.2 161.113 47.2 160.093 45.04L143.653 11.98L127.213 45.04ZM143.653 24.16L150.613 39.28H136.693L143.653 24.16ZM197.121 39.52C197.121 35.26 195.201 32.44 191.241 30.16L185.541 26.92C182.601 25.36 181.881 24.1 181.881 22.36C181.881 20.08 183.561 18.28 186.501 18.28C188.961 18.28 190.641 19.9 190.641 21.16C190.641 22 190.221 22.66 189.681 23.02L189.981 24.04L191.361 23.14C193.281 22.18 194.961 21.16 196.521 20.32C194.181 15.7 190.941 13.42 186.381 13.42C180.141 13.42 176.061 17.62 176.061 22.9C176.061 28 179.121 30.28 182.481 32.2L186.681 34.66C189.501 36.16 190.941 37.54 190.941 39.76C190.941 42.4 188.721 44.5 185.661 44.5C182.901 44.5 181.281 42.58 181.281 41.08C181.281 40.42 181.521 39.82 182.301 39.28L182.061 38.26C181.341 38.56 180.321 39.1 178.881 39.7L174.621 41.44C175.581 46.18 180.081 49.78 185.781 49.78C191.421 49.78 197.121 45.94 197.121 39.52ZM215.029 13.96V28.18C212.929 28.12 212.569 27.22 212.509 26.14V25.72L211.309 25.42V25.9C211.309 26.86 211.489 28.06 211.489 28.78V33.1C211.489 33.82 211.309 35.02 211.309 35.98V36.46L212.509 36.16V35.74C212.569 34.66 212.929 33.82 215.029 33.7V53.74L220.069 49H231.349C233.689 49 234.049 49.6 234.229 51.28V51.7L235.369 52V51.52C235.369 50.56 235.249 49.36 235.249 48.64V44.26C235.249 43.54 235.369 42.34 235.369 41.38V40.9L234.169 41.32C234.169 41.32 234.169 41.68 234.109 41.86C233.869 42.7 233.449 43.3 231.349 43.3H221.089V33.7H231.289C233.629 33.7 234.049 34.6 234.109 35.74V36.16L235.309 36.46V35.98C235.309 35.02 235.129 33.82 235.129 33.1V28.78C235.129 28.06 235.309 26.86 235.309 25.9V25.42L234.109 25.72V26.14C234.049 27.28 233.629 28.18 231.289 28.18H221.089V19.66H231.349C233.449 19.66 233.869 20.26 234.109 21.1C234.169 21.28 234.169 21.64 234.169 21.64L235.369 22.06V21.58C235.369 20.62 235.249 19.42 235.249 18.7V14.32C235.249 13.6 235.369 12.4 235.369 11.44V10.96L234.229 11.26V11.68C234.049 13.36 233.689 13.96 231.349 13.96H215.029Z" fill="white"/>
</g>
<defs>
<filter id="filter0_d" x="0.599976" y="0.959961" width="244.769" height="62.78" filterUnits="userSpaceOnUse" color-interpolation-filters="sRGB">
<feFlood flood-opacity="0" result="BackgroundImageFix"/>
<feColorMatrix in="SourceAlpha" type="matrix" values="0 0 0 0 0 0 0 0 0 0 0 0 0 0 0 0 0 0 127 0" result="hardAlpha"/>
<feOffset/>
<feGaussianBlur stdDeviation="5"/>
<feComposite in2="hardAlpha" operator="out"/>
<feColorMatrix type="matrix" values="0 0 0 0 0 0 0 0 0 0 0 0 0 0 0 0 0 0 0.8 0"/>
<feBlend mode="normal" in2="BackgroundImageFix" result="effect1_dropShadow"/>
<feBlend mode="normal" in="SourceGraphic" in2="effect1_dropShadow" result="shape"/>
</filter>
</defs>
</svg>
